<?xml version="1.0" standalone="no"?>
<!DOCTYPE svg PUBLIC "-//W3C//DTD SVG 20010904//EN"
 "http://www.w3.org/TR/2001/REC-SVG-20010904/DTD/svg10.dtd">
<svg version="1.0" xmlns="http://www.w3.org/2000/svg"
 width="3071.000000pt" height="544.000000pt" viewBox="0 0 3071.000000 544.000000"
 preserveAspectRatio="xMidYMid meet">

<g transform="translate(0.000000,544.000000) scale(0.100000,-0.100000)"
fill="#000000" stroke="none">
<path d="M1393 5262 c-40 -86 -136 -294 -214 -462 -340 -733 -456 -983 -514
-1110 -77 -169 -232 -503 -463 -1000 l-179 -385 26 -7 c14 -4 201 -21 416 -38
215 -17 606 -49 870 -70 264 -22 572 -47 685 -55 113 -8 222 -18 242 -21 l38
-6 2 -1041 c3 -877 5 -1042 17 -1042 12 0 57 98 232 505 23 52 65 149 94 215
29 66 135 309 235 540 100 231 197 454 215 495 18 41 56 129 85 195 29 66 67
154 85 195 18 41 93 212 165 380 73 168 159 365 191 438 59 135 65 152 52 152
-8 0 -111 17 -1168 195 -678 114 -964 162 -1007 171 l-28 6 -2 953 -3 954 -72
-157z"/>
<path d="M19328 3983 l-168 -3 0 -199 0 -198 298 -7 c349 -8 463 -18 580 -52
379 -110 610 -443 589 -849 -18 -332 -179 -601 -447 -744 -152 -81 -371 -108
-787 -96 l-233 7 0 -205 0 -204 167 -6 c478 -19 726 5 960 93 391 147 669 452
776 850 30 110 31 123 32 320 0 194 -2 211 -29 315 -102 393 -362 699 -726
856 -235 101 -499 133 -1012 122z"/>
<path d="M14440 3972 c0 -6 54 -157 119 -334 65 -178 162 -442 216 -588 53
-145 103 -280 110 -300 8 -19 100 -269 205 -555 105 -286 212 -563 238 -615
41 -83 53 -98 96 -125 49 -30 51 -30 211 -33 118 -3 169 0 192 10 l31 13 -277
760 c-325 890 -397 1087 -486 1330 -37 99 -80 218 -97 265 -63 177 -53 172
-340 178 -155 3 -218 2 -218 -6z"/>
<path d="M16400 3971 c-47 -10 -63 -20 -56 -37 3 -7 218 -312 479 -676 472
-661 845 -1190 1052 -1493 179 -261 267 -333 420 -343 39 -2 96 1 128 8 l57
11 0 1255 0 1254 -220 0 -220 0 0 -835 c0 -459 -4 -835 -8 -835 -17 0 -42 28
-119 135 -44 61 -160 220 -259 355 -263 358 -406 561 -550 780 -174 266 -253
345 -399 400 -65 24 -237 36 -305 21z"/>
<path d="M25858 3973 c-43 -2 -78 -6 -78 -8 0 -4 204 -566 542 -1490 82 -225
201 -553 265 -727 l116 -318 248 0 c137 0 249 1 249 3 0 2 -20 57 -44 123 -60
164 -178 486 -349 954 -334 912 -461 1249 -496 1315 -48 91 -97 129 -184 144
-61 11 -99 11 -269 4z"/>
<path d="M27785 3956 c-53 -33 -84 -84 -139 -236 -144 -397 -189 -507 -320
-770 -91 -185 -107 -255 -87 -397 15 -107 38 -172 182 -513 12 -28 -3 -61 157
335 44 110 119 295 166 410 271 670 476 1179 476 1184 0 3 -89 7 -199 8 -190
1 -200 0 -236 -21z"/>
<path d="M8443 3963 l-333 -3 0 -205 0 -205 623 0 c677 0 697 -2 799 -57 134
-73 208 -248 179 -426 -28 -174 -138 -293 -301 -326 -87 -17 -490 -31 -912
-31 l-388 0 0 -640 0 -640 215 0 215 0 2 441 3 440 235 3 c129 1 250 -2 269
-7 48 -13 115 -79 184 -182 117 -176 417 -591 453 -628 68 -69 73 -70 333 -75
197 -4 233 -2 229 10 -5 11 -627 894 -660 935 -7 9 21 27 104 69 141 70 216
123 298 210 128 136 182 283 183 504 2 251 -56 413 -201 564 -111 114 -274
198 -437 225 -80 13 -522 32 -665 29 -52 -2 -245 -4 -427 -5z"/>
<path d="M11223 3963 l-233 -3 0 -190 0 -190 253 0 c299 -1 684 -15 817 -30
161 -19 249 -80 285 -202 48 -161 -19 -329 -153 -386 -119 -51 -163 -55 -699
-59 l-503 -4 0 -189 0 -188 563 -5 c608 -6 653 -9 742 -61 130 -77 231 -280
195 -392 -43 -129 -134 -185 -365 -221 -80 -12 -201 -16 -615 -17 l-515 -1 -3
-196 -2 -196 372 -6 c333 -6 840 4 893 17 11 3 52 13 90 22 92 22 255 87 326
130 79 47 168 146 207 228 84 176 93 411 21 566 -43 93 -162 205 -305 290
l-111 65 112 110 c169 166 221 284 213 480 -15 341 -255 581 -622 619 -72 8
-693 14 -963 9z"/>
<path d="M5393 3113 c4 -809 5 -852 24 -938 44 -192 125 -346 248 -469 138
-137 324 -228 553 -270 l34 -6 -4 183 c-4 213 -9 229 -92 269 -155 77 -250
193 -296 360 -35 131 -40 257 -40 999 l0 719 -216 0 -215 0 4 -847z"/>
<path d="M7064 3173 c-1 -887 0 -875 -75 -1031 -49 -101 -134 -191 -232 -246
-102 -58 -110 -75 -115 -272 -3 -90 -2 -170 1 -178 5 -13 22 -11 114 14 326
85 549 260 649 510 75 185 84 314 84 1263 l0 727 -213 0 -213 0 0 -787z"/>
<path d="M24640 2695 l0 -1265 220 0 220 0 0 1265 0 1265 -220 0 -220 0 0
-1265z"/>
<path d="M28800 3765 l0 -195 945 0 945 0 0 195 0 195 -945 0 -945 0 0 -195z"/>
<path d="M22030 3941 l-245 -6 -3 -187 -2 -187 622 -4 c456 -3 636 -8 673 -17
150 -38 253 -119 296 -232 34 -88 34 -246 1 -330 -45 -113 -152 -199 -297
-240 -77 -21 -99 -22 -685 -28 l-605 -5 -3 -637 -2 -638 220 0 220 0 2 441 3
440 230 3 c250 3 288 -2 348 -48 19 -15 86 -102 148 -194 121 -180 350 -500
406 -570 60 -74 68 -76 336 -80 162 -3 237 -1 237 6 0 8 -605 866 -662 939 -7
8 25 29 114 73 262 130 388 270 450 497 28 104 31 344 5 443 -42 160 -104 268
-210 365 -115 107 -246 161 -447 185 -110 13 -791 20 -1150 11z"/>
<path d="M14190 3345 c-12 -28 -48 -115 -80 -195 -32 -80 -88 -219 -125 -310
-37 -91 -119 -293 -182 -450 -64 -157 -174 -429 -245 -605 -72 -176 -132 -328
-135 -337 -5 -17 11 -18 230 -18 179 0 236 3 240 13 3 6 53 129 112 272 405
981 418 1015 418 1070 0 49 -15 92 -172 505 l-40 105 -21 -50z"/>
<path d="M16290 2415 l0 -975 221 0 222 0 -5 653 c-6 747 1 688 -104 839 -136
194 -326 458 -330 458 -2 0 -4 -439 -4 -975z"/>
<path d="M28807 2903 c-4 -3 -7 -91 -7 -195 l0 -188 850 0 850 0 0 195 0 195
-843 0 c-464 0 -847 -3 -850 -7z"/>
<path d="M28810 1635 l0 -195 940 0 940 0 0 195 0 195 -940 0 -940 0 0 -195z"/>
</g>
</svg>
